<svg width="270" height="270" viewBox="0 0 270 270" fill="none" xmlns="http://www.w3.org/2000/svg">
<path d="M263 7C258.999 3.001 253.574 0.753998 247.917 0.753998C242.261 0.753998 236.835 3.001 232.835 7L135 104.835L37.165 7C33.165 3.001 27.74 0.753998 22.083 0.753998C16.426 0.753998 11.001 3.001 7 7C3.001 11.001 0.753998 16.426 0.753998 22.083C0.753998 27.74 3.001 33.165 7 37.165L104.835 135L7 232.835C3.001 236.835 0.753998 242.261 0.753998 247.917C0.753998 253.574 3.001 258.999 7 263C11.001 266.999 16.426 269.246 22.083 269.246C27.74 269.246 33.165 266.999 37.165 263L135 165.165L232.835 263C236.835 266.999 242.261 269.246 247.917 269.246C253.574 269.246 258.999 266.999 263 263C266.999 258.999 269.246 253.574 269.246 247.917C269.246 242.261 266.999 236.835 263 232.835L165.165 135L263 37.165C266.999 33.165 269.246 27.74 269.246 22.083C269.246 16.426 266.999 11.001 263 7Z" fill="black"/>
</svg>
